<svg width="114mm" height="114mm" version="1.1" viewBox="0 0 114 114" xmlns="http://www.w3.org/2000/svg">
 <g>
  <path d="m47.194 6.8568e-5c-0.14438 0.6902-0.41269 1.3325-0.41269 2.0691 0 1.422 0.28377 2.7695 0.79668 3.9949 0.51302 1.2253 1.257 2.327 2.178 3.2498 0.92101 0.92277 2.02 1.6694 3.2441 2.1837 1.224 0.51431 2.5728 0.7967 3.9949 0.7967 1.4221 0 2.7753-0.2823 4.0006-0.7967 1.2254-0.51431 2.3213-1.2609 3.2441-2.1837 0.92275-0.92277 1.6694-2.0244 2.1837-3.2498 0.51431-1.2253 0.79668-2.5728 0.79668-3.9949 0-0.73654-0.26793-1.3789-0.41266-2.0691z" fill="#01b9bc"/>
  <path d="m94.09 114a51.421 51.421 0 0 0 0.21217-0.21774 51.421 51.421 0 0 0 0.70497-0.75656 51.421 51.421 0 0 0 0.6878-0.76802 51.421 51.421 0 0 0 0.67058-0.78523 51.421 51.421 0 0 0 0.65913-0.79666 51.421 51.421 0 0 0 0.63621-0.8139 51.421 51.421 0 0 0 0.62474-0.81959 51.421 51.421 0 0 0 0.60754-0.83681 51.421 51.421 0 0 0 0.59035-0.84826 51.421 51.421 0 0 0 0.57318-0.85973 51.421 51.421 0 0 0 0.55596-0.8712 51.421 51.421 0 0 0 0.53875-0.88265 51.421 51.421 0 0 0 0.52159-0.88838 51.421 51.421 0 0 0 0.50437-0.9056 51.421 51.421 0 0 0 0.48147-0.91129 51.421 51.421 0 0 0 0.46425-0.92279 51.421 51.421 0 0 0 0.44705-0.92849 51.421 51.421 0 0 0 0.42989-0.93999 51.421 51.421 0 0 0 0.41266-0.95141 51.421 51.421 0 0 0 0.38974-0.95144 51.421 51.421 0 0 0 0.37257-0.96863 51.421 51.421 0 0 0 0.34962-0.96863 51.421 51.421 0 0 0 0.33243-0.98008 51.421 51.421 0 0 0 0.30951-0.98583 51.421 51.421 0 0 0 0.29228-0.98583 51.421 51.421 0 0 0 0.27497-0.99727 51.421 51.421 0 0 0 0.25208-1.003 51.421 51.421 0 0 0 0.23506-1.0087 51.421 51.421 0 0 0 0.21217-1.0087 51.421 51.421 0 0 0 0.18899-1.0145 51.421 51.421 0 0 0 0.17196-1.0202 51.421 51.421 0 0 0 0.14908-1.0202 51.421 51.421 0 0 0 0.13176-1.0259 51.421 51.421 0 0 0 0.10887-1.0259 51.421 51.421 0 0 0 0.0916-1.0317 51.421 51.421 0 0 0 0.0631-1.0259 51.421 51.421 0 0 0 0.0516-1.0317 51.421 51.421 0 0 0 0.0235-1.0374 51.421 51.421 0 0 0 0.0117-0.81962h-102.84a51.421 51.421 0 0 0 0.011738 1.0317 51.421 51.421 0 0 0 0.029346 1.0317 51.421 51.421 0 0 0 0.051648 1.0317 51.421 51.421 0 0 0 0.074538 1.0317 51.421 51.421 0 0 0 0.091558 1.0259 51.421 51.421 0 0 0 0.11474 1.0259 51.421 51.421 0 0 0 0.13176 1.0259 51.421 51.421 0 0 0 0.15465 1.0202 51.421 51.421 0 0 0 0.17754 1.0202 51.421 51.421 0 0 0 0.19486 1.0145 51.421 51.421 0 0 0 0.21774 1.0087 51.421 51.421 0 0 0 0.23506 1.003 51.421 51.421 0 0 0 0.25795 1.003 51.421 51.421 0 0 0 0.27497 0.99727 51.421 51.421 0 0 0 0.29803 0.98583 51.421 51.421 0 0 0 0.31523 0.98583 51.421 51.421 0 0 0 0.33818 0.97435 51.421 51.421 0 0 0 0.35535 0.96863 51.421 51.421 0 0 0 0.37254 0.96288 51.421 51.421 0 0 0 0.39549 0.95716 51.421 51.421 0 0 0 0.41266 0.94571 51.421 51.421 0 0 0 0.43561 0.93996 51.421 51.421 0 0 0 0.44708 0.92852 51.421 51.421 0 0 0 0.46997 0.91704 51.421 51.421 0 0 0 0.4872 0.91129 51.421 51.421 0 0 0 0.51012 0.89985 51.421 51.421 0 0 0 0.52156 0.89412 51.421 51.421 0 0 0 0.54451 0.87693 51.421 51.421 0 0 0 0.55595 0.87121 51.421 51.421 0 0 0 0.5789 0.85398 51.421 51.421 0 0 0 0.59607 0.84826 51.421 51.421 0 0 0 0.60754 0.83109 51.421 51.421 0 0 0 0.63049 0.81958 51.421 51.421 0 0 0 0.64194 0.80815 51.421 51.421 0 0 0 0.65913 0.79669 51.421 51.421 0 0 0 0.6763 0.77948 51.421 51.421 0 0 0 0.69353 0.76802 51.421 51.421 0 0 0 0.705 0.75083 51.421 51.421 0 0 0 0.06867 0.0687z" fill="#fff"/>
  <path d="m-2.8224e-5 6.8568e-5v114h19.917a51.421 51.421 0 0 1-0.06867-0.0687 51.421 51.421 0 0 1-0.705-0.75083 51.421 51.421 0 0 1-0.69353-0.76803 51.421 51.421 0 0 1-0.6763-0.77947 51.421 51.421 0 0 1-0.65913-0.7967 51.421 51.421 0 0 1-0.64194-0.80814 51.421 51.421 0 0 1-0.63049-0.81959 51.421 51.421 0 0 1-0.60754-0.83109 51.421 51.421 0 0 1-0.59607-0.84825 51.421 51.421 0 0 1-0.5789-0.85398 51.421 51.421 0 0 1-0.55595-0.87121 51.421 51.421 0 0 1-0.54451-0.87693 51.421 51.421 0 0 1-0.52156-0.89412 51.421 51.421 0 0 1-0.51012-0.89985 51.421 51.421 0 0 1-0.4872-0.91129 51.421 51.421 0 0 1-0.46997-0.91704 51.421 51.421 0 0 1-0.44708-0.92849 51.421 51.421 0 0 1-0.43561-0.93996 51.421 51.421 0 0 1-0.41266-0.94571 51.421 51.421 0 0 1-0.39549-0.95716 51.421 51.421 0 0 1-0.37254-0.96288 51.421 51.421 0 0 1-0.35535-0.96863 51.421 51.421 0 0 1-0.33818-0.97436 51.421 51.421 0 0 1-0.31523-0.98583 51.421 51.421 0 0 1-0.29803-0.98583 51.421 51.421 0 0 1-0.27497-0.99727 51.421 51.421 0 0 1-0.25795-1.003 51.421 51.421 0 0 1-0.23506-1.003 51.421 51.421 0 0 1-0.21774-1.0087 51.421 51.421 0 0 1-0.19486-1.0145 51.421 51.421 0 0 1-0.17754-1.0202 51.421 51.421 0 0 1-0.15465-1.0202 51.421 51.421 0 0 1-0.13176-1.0259 51.421 51.421 0 0 1-0.11474-1.0259 51.421 51.421 0 0 1-0.091558-1.0259 51.421 51.421 0 0 1-0.074538-1.0317 51.421 51.421 0 0 1-0.051648-1.0317 51.421 51.421 0 0 1-0.029346-1.0317 51.421 51.421 0 0 1-0.011738-1.0317h102.84a51.421 51.421 0 0 1-0.0117 0.81962 51.421 51.421 0 0 1-0.0235 1.0374 51.421 51.421 0 0 1-0.0516 1.0317 51.421 51.421 0 0 1-0.0631 1.0259 51.421 51.421 0 0 1-0.0915 1.0317 51.421 51.421 0 0 1-0.10888 1.0259 51.421 51.421 0 0 1-0.13176 1.0259 51.421 51.421 0 0 1-0.14907 1.0202 51.421 51.421 0 0 1-0.17197 1.0202 51.421 51.421 0 0 1-0.18899 1.0145 51.421 51.421 0 0 1-0.21217 1.0087 51.421 51.421 0 0 1-0.23505 1.0087 51.421 51.421 0 0 1-0.25208 1.003 51.421 51.421 0 0 1-0.27497 0.99727 51.421 51.421 0 0 1-0.29229 0.98583 51.421 51.421 0 0 1-0.3095 0.98583 51.421 51.421 0 0 1-0.33243 0.98008 51.421 51.421 0 0 1-0.34963 0.96863 51.421 51.421 0 0 1-0.37257 0.96863 51.421 51.421 0 0 1-0.38974 0.95144 51.421 51.421 0 0 1-0.41266 0.95141 51.421 51.421 0 0 1-0.42988 0.93999 51.421 51.421 0 0 1-0.44706 0.92849 51.421 51.421 0 0 1-0.46424 0.92279 51.421 51.421 0 0 1-0.48148 0.91129 51.421 51.421 0 0 1-0.50436 0.9056 51.421 51.421 0 0 1-0.52159 0.88837 51.421 51.421 0 0 1-0.53876 0.88265 51.421 51.421 0 0 1-0.55595 0.87121 51.421 51.421 0 0 1-0.57318 0.85973 51.421 51.421 0 0 1-0.59035 0.84826 51.421 51.421 0 0 1-0.60754 0.83681 51.421 51.421 0 0 1-0.62474 0.81959 51.421 51.421 0 0 1-0.63621 0.81389 51.421 51.421 0 0 1-0.65913 0.79667 51.421 51.421 0 0 1-0.67058 0.78523 51.421 51.421 0 0 1-0.6878 0.76802 51.421 51.421 0 0 1-0.70497 0.75656 51.421 51.421 0 0 1-0.21217 0.21774h19.911v-114h-39.909c0.088624 0.70957 0.42413 1.3367 0.42413 2.0691 0 2.4078-0.49712 4.7038-1.387 6.7976-0.88994 2.0938-2.1778 3.9832-3.7657 5.571-1.5879 1.5878-3.4715 2.8757-5.5653 3.7656-2.0938 0.8899-4.3956 1.3813-6.8034 1.3813-2.4078 0-4.7051-0.49139-6.7977-1.3813-2.0925-0.88993-3.9792-2.1778-5.5653-3.7656-1.5861-1.5878-2.8713-3.4772-3.7599-5.571-0.88862-2.0938-1.3813-4.3898-1.3813-6.7976 0-0.73214 0.33008-1.3598 0.41838-2.0691z" fill="#01b9bc"/>
  <g transform="matrix(22.314 0 0 22.313 -1399.8 -2366.1)" fill="#fff" shape-rendering="auto">
   <path d="m65.285 106.67v0.71475" color="#000000" color-rendering="auto" dominant-baseline="auto" image-rendering="auto" solid-color="#000000" stop-color="#000000" style="font-feature-settings:normal;font-variant-alternates:normal;font-variant-caps:normal;font-variant-east-asian:normal;font-variant-ligatures:normal;font-variant-numeric:normal;font-variant-position:normal;font-variation-settings:normal;inline-size:0;isolation:auto;mix-blend-mode:normal;shape-margin:0;shape-padding:0;text-decoration-color:#000000;text-decoration-line:none;text-decoration-style:solid;text-indent:0;text-orientation:mixed;text-transform:none;white-space:normal"/>
   <path d="m65.104 106.67v0.71484h0.36523v-0.71484z" color="#000000" color-rendering="auto" dominant-baseline="auto" image-rendering="auto" solid-color="#000000" stop-color="#000000" style="font-feature-settings:normal;font-variant-alternates:normal;font-variant-caps:normal;font-variant-east-asian:normal;font-variant-ligatures:normal;font-variant-numeric:normal;font-variant-position:normal;font-variation-settings:normal;inline-size:0;isolation:auto;mix-blend-mode:normal;shape-margin:0;shape-padding:0;text-decoration-color:#000000;text-decoration-line:none;text-decoration-style:solid;text-indent:0;text-orientation:mixed;text-transform:none;white-space:normal"/>
  </g>
  <path d="m56.588 26.958a51.421 51.421 0 0 0-51.006 51.424h102.84a51.421 51.421 0 0 0-51.425-51.424 51.421 51.421 0 0 0-0.40871 0z" fill="#fc0" stroke-width="7.0391"/>
  <path d="m39.909 6.8568e-5c-0.08833 0.70931-0.41838 1.3369-0.41838 2.0691 0 2.4078 0.49268 4.7038 1.3813 6.7976 0.88862 2.0938 2.1738 3.9832 3.7599 5.571 1.5861 1.5878 3.4728 2.8757 5.5653 3.7656 2.0926 0.8899 4.3898 1.3813 6.7977 1.3813 2.4078 0 4.7095-0.49139 6.8034-1.3813 2.0938-0.88993 3.9775-2.1778 5.5653-3.7656 1.5879-1.5878 2.8757-3.4772 3.7657-5.571 0.88991-2.0938 1.387-4.3898 1.387-6.7976 0-0.73243-0.3356-1.3595-0.42413-2.0691h-7.2848c0.14467 0.6902 0.41266 1.3325 0.41266 2.0691 0 1.422-0.28231 2.7695-0.79668 3.9949-0.51431 1.2253-1.261 2.327-2.1837 3.2498-0.92274 0.92277-2.0187 1.6694-3.2441 2.1837s-2.5785 0.7967-4.0006 0.7967c-1.4221 0-2.7709-0.2823-3.9949-0.7967-1.224-0.51431-2.3231-1.2609-3.2441-2.1837-0.92098-0.92277-1.665-2.0244-2.178-3.2498-0.51299-1.2253-0.79668-2.5728-0.79668-3.9949 0-0.73654 0.26822-1.3789 0.41269-2.0691z" fill="#fff"/>
  <text x="22.391594" y="96.887169" fill="#01b9bc" font-family="'Noto Sans CJK TC'" font-size="69.181px" font-weight="bold" letter-spacing="0px" stroke-width=".37872" word-spacing="0px" style="font-variant-caps:normal;font-variant-east-asian:normal;font-variant-ligatures:normal;font-variant-numeric:normal;line-height:1.25" xml:space="preserve"><tspan x="22.391594" y="96.887169" fill="#01b9bc" font-family="'Noto Sans CJK TC'" font-size="69.181px" font-weight="bold" stroke-width=".37872" style="font-variant-caps:normal;font-variant-east-asian:normal;font-variant-ligatures:normal;font-variant-numeric:normal">IS</tspan></text>
  <path d="m26.58 103.01h60.843v10.988h-60.843z" fill="#01b9bc" stroke-width="4.9601"/>
 </g>
</svg>
